<svg width="32" height="32" viewBox="0 0 32 32" fill="none" xmlns="http://www.w3.org/2000/svg">
<path fill-rule="evenodd" clip-rule="evenodd" d="M0.5 16C0.5 7.43959 7.43959 0.5 16 0.5C24.5604 0.5 31.5 7.43959 31.5 16C31.5 24.5604 24.5604 31.5 16 31.5C7.43959 31.5 0.5 24.5604 0.5 16ZM16 1.5C7.99187 1.5 1.5 7.99187 1.5 16C1.5 23.8408 7.72339 30.228 15.5 30.4915V18.6429H10.6429V17.6429H15.5V13.8571C15.5 11.2141 17.6426 9.07143 20.2857 9.07143H21.3571V10.0714H20.2857C18.1949 10.0714 16.5 11.7664 16.5 13.8571V17.6429H21.3571V18.6429H16.5V30.4915C24.2766 30.228 30.5 23.8408 30.5 16C30.5 7.99187 24.0081 1.5 16 1.5Z" fill="white"/>
</svg>
