<svg width="32" height="32" viewBox="0 0 32 32" fill="none" xmlns="http://www.w3.org/2000/svg">
<path fill-rule="evenodd" clip-rule="evenodd" d="M0.5 9.57143C0.5 4.56142 4.56142 0.5 9.57143 0.5H22.4286C27.4386 0.5 31.5 4.56142 31.5 9.57143V22.4286C31.5 27.4386 27.4386 31.5 22.4286 31.5H9.57143C4.56142 31.5 0.5 27.4386 0.5 22.4286V9.57143ZM9.57143 1.5C5.1137 1.5 1.5 5.1137 1.5 9.57143V22.4286C1.5 26.8863 5.1137 30.5 9.57143 30.5H22.4286C26.8863 30.5 30.5 26.8863 30.5 22.4286V9.57143C30.5 5.1137 26.8863 1.5 22.4286 1.5H9.57143ZM25.6429 7.92857H23.5V6.92857H25.6429V7.92857ZM9.07143 16C9.07143 12.1735 12.1735 9.07143 16 9.07143C19.8265 9.07143 22.9286 12.1735 22.9286 16C22.9286 19.8265 19.8265 22.9286 16 22.9286C12.1735 22.9286 9.07143 19.8265 9.07143 16ZM16 10.0714C12.7257 10.0714 10.0714 12.7257 10.0714 16C10.0714 19.2743 12.7257 21.9286 16 21.9286C19.2743 21.9286 21.9286 19.2743 21.9286 16C21.9286 12.7257 19.2743 10.0714 16 10.0714Z" fill="white"/>
</svg>
