<svg width="22" height="22" viewBox="0 0 22 22" fill="none" xmlns="http://www.w3.org/2000/svg">
<path fill-rule="evenodd" clip-rule="evenodd" d="M0.5 9.57143C0.5 4.56142 4.56142 0.5 9.57143 0.5C14.5814 0.5 18.6429 4.56142 18.6429 9.57143C18.6429 11.8965 17.7681 14.0173 16.3298 15.6227L21.3536 20.6464L20.6464 21.3536L15.6227 16.3298C14.0173 17.7681 11.8965 18.6429 9.57143 18.6429C4.56142 18.6429 0.5 14.5814 0.5 9.57143ZM9.57143 1.5C5.1137 1.5 1.5 5.1137 1.5 9.57143C1.5 14.0292 5.1137 17.6429 9.57143 17.6429C14.0292 17.6429 17.6429 14.0292 17.6429 9.57143C17.6429 5.1137 14.0292 1.5 9.57143 1.5Z" fill="white"/>
</svg>
